<svg xmlns="http://www.w3.org/2000/svg" viewBox="0 0 141.84 97.34"><defs><style>.cls-1{fill:#0d426d;}.cls-2{fill:#fff;}</style></defs><title>Aislamientologo</title><g id="Capa_2" data-name="Capa 2"><g id="Capa_1-2" data-name="Capa 1"><path class="cls-1" d="M0,80.12a15,15,0,0,1,1-1.87,4.63,4.63,0,0,1,3.69-2c.4,0,.81,0,1.21,0H81.15c.37,0,.74,0,1.11,0a1.49,1.49,0,0,1,.16,3,6.1,6.1,0,0,1-1.21.06H6.13c-.41,0-.81,0-1.22,0a1.82,1.82,0,0,0-1.85,1.88c0,1.45,0,2.91,0,4.36A1.84,1.84,0,0,0,5,87.43c.31,0,.61,0,.92,0H98c2.35,0,2.84-.49,2.84-2.86,0-1.08,0-2.16,0-3.25a1.87,1.87,0,0,0-2.08-2.07c-2.94,0-5.88,0-8.83,0a4.18,4.18,0,0,1-1-.08,1.39,1.39,0,0,1-1.15-1.56,1.33,1.33,0,0,1,1.36-1.37c3.52,0,7-.09,10.55.06a4.72,4.72,0,0,1,4.19,4.62,35.81,35.81,0,0,1,0,4.86,18.48,18.48,0,0,1-1.07,3.43,5,5,0,0,1-3.65,8.12c-.41,0-.82,0-1.22,0H6.09c-3.53,0-4.74-.8-6.09-4V91.48l1.2-2.54L0,86.61ZM52.06,90.48H5.71C4,90.48,3,91.15,3.05,92.4S4,94.3,5.74,94.3h92.4c1.78,0,2.68-.63,2.71-1.88s-.9-1.94-2.74-1.94h-46"/><path class="cls-1" d="M0,55.16c.19-.78.36-1.57.57-2.34a16.29,16.29,0,0,1,6-8.94c1-.78,1.91-.8,2.51-.06s.36,1.65-.66,2.48C4,49.88,2.17,54.47,3.42,60s4.89,9,10.42,10.3A13.49,13.49,0,0,0,25.18,46.67a3.48,3.48,0,0,1-1.46-3.08c.05-11.06,0-22.11,0-33.17a7.18,7.18,0,1,0-14.36.07c0,8.36,0,16.71,0,25.06,0,.68,0,1.36,0,2a1.45,1.45,0,0,1-1.49,1.57,1.5,1.5,0,0,1-1.54-1.54,4.34,4.34,0,0,1,0-.51c0-8.86,0-17.72,0-26.58a10.22,10.22,0,1,1,20.44-.27q.06,16.23,0,32.47a2.57,2.57,0,0,0,.89,2.08c4.89,4.64,6.63,10.32,4.79,16.8S26.17,72,19.63,73.33A16.6,16.6,0,0,1,.2,59.68c0-.29-.13-.58-.2-.87Z"/><path class="cls-1" d="M21.11,28.27c0,6,0,12,0,18a1.27,1.27,0,0,0,.75,1.34,10.88,10.88,0,1,1-16.14,9,10.47,10.47,0,0,1,5.44-9A1.55,1.55,0,0,0,12,46.07q0-17.74,0-35.5A4.62,4.62,0,0,1,15.4,5.85a4.5,4.5,0,0,1,5.7,4.47c0,6,0,12,0,18m-6,3.56v1.22c0,4.84,0,9.67,0,14.51a2.17,2.17,0,0,1-1.52,2.3,7.48,7.48,0,0,0-4.8,6.72,7.76,7.76,0,0,0,6.57,8.22,7.87,7.87,0,0,0,8.75-5.47,7.74,7.74,0,0,0-4.45-9.45A2.29,2.29,0,0,1,18,47.41c.06-4.84,0-9.68,0-14.51V31.83Zm3-3.15c0-.28,0-.51,0-.74q0-3.64,0-7.29,0-5.07,0-10.14c0-1.1-.59-1.79-1.49-1.79s-1.47.69-1.51,1.8c0,.13,0,.27,0,.4V27.64c0,.33,0,.66,0,1Z"/><path class="cls-1" d="M76.13,10.78A16.45,16.45,0,0,1,75,12.2a18.16,18.16,0,0,0-5.34,17.59c.42,2,1.77,3.84,2.88,5.64,1.23,2,2.74,3.85,4,5.84,3.31,5.15,3.3,10.64,1.44,16.26A24.74,24.74,0,0,1,74,65.08a1.51,1.51,0,1,1-2.41-1.82c.15-.23.32-.44.47-.66A22.76,22.76,0,0,0,76,53.15a13.63,13.63,0,0,0-1.78-9.94A73.13,73.13,0,0,0,70,37.13c-7-8.91-3.35-21.09,2.45-26.66a3.89,3.89,0,0,1,1.17-1,2.1,2.1,0,0,1,1.5,0c.42.19.65.76,1,1.28"/><path class="cls-1" d="M91.56,50.37a24.53,24.53,0,0,1-5.15,14.55,1.59,1.59,0,0,1-2.28.58c-.78-.55-.85-1.45-.16-2.4a23.52,23.52,0,0,0,4.15-9,14.48,14.48,0,0,0-2.18-11.8c-1.23-1.78-2.46-3.56-3.76-5.29-4.75-6.36-4.63-13.16-1.77-20.16a18.79,18.79,0,0,1,4.47-6.47,7.68,7.68,0,0,1,.59-.55,1.61,1.61,0,0,1,2.35,0,1.51,1.51,0,0,1-.33,2.3,17.14,17.14,0,0,0-4.26,5.86,19.24,19.24,0,0,0-1.45,11.29c.41,2.36,1.75,4.3,3.06,6.23,1.67,2.46,3.39,4.89,4.91,7.43a13.69,13.69,0,0,1,1.81,7.5"/><path class="cls-1" d="M48.41,65.74c-1.48,0-2.23-1.07-1.76-2.08a5.94,5.94,0,0,1,.56-.85,22.07,22.07,0,0,0,4.34-12.12,12.65,12.65,0,0,0-2-7.42c-1.39-2.16-2.9-4.24-4.36-6.35-1.61-2.32-3.1-4.73-3.46-7.58-.93-7.5,1.06-14,6.58-19.38a3.88,3.88,0,0,1,.31-.26,1.52,1.52,0,1,1,2,2.27c-4.78,4.41-6.51,10-6,16.31A12.44,12.44,0,0,0,47,34.14c1.11,1.66,2.25,3.3,3.46,4.88,5.1,6.64,5.24,13.73,1.84,21.09a38.47,38.47,0,0,1-2.86,4.76,3.88,3.88,0,0,1-1,.87"/><path class="cls-1" d="M66.94,50.9A24.61,24.61,0,0,1,61.7,65a1.53,1.53,0,1,1-2.39-1.86A22.75,22.75,0,0,0,63.8,51.87a13,13,0,0,0-1.88-8.54c-1.43-2.25-3-4.39-4.53-6.6a17.34,17.34,0,0,1-3.45-8.21c-.11-1.18.31-1.87,1.2-2s1.67.4,1.79,1.59c.31,2.8,1.73,5.07,3.25,7.32,1.69,2.49,3.42,5,5,7.52a15.06,15.06,0,0,1,1.79,7.95"/><path class="cls-1" d="M103.91,50.43A24.81,24.81,0,0,1,98.7,65a1.57,1.57,0,0,1-2.28.51c-.77-.58-.81-1.42-.1-2.4a22.76,22.76,0,0,0,4.42-10.85,13.51,13.51,0,0,0-1.42-8.14c-.24-.45-.5-.88-.74-1.33a1.53,1.53,0,0,1,.48-2.2,1.5,1.5,0,0,1,2.15.68,16.5,16.5,0,0,1,2.7,9.2"/><path class="cls-1" d="M90.81,25.51a21.67,21.67,0,0,1,6-14.83,8.7,8.7,0,0,1,1.29-1.14,1.4,1.4,0,0,1,2,.24,1.43,1.43,0,0,1-.06,2,2.54,2.54,0,0,1-.29.28c-4.43,4.13-6.16,9.3-5.94,15.24a4.16,4.16,0,0,1,0,1,1.49,1.49,0,0,1-2.93-.08,5.5,5.5,0,0,1-.08-.91c0-.61,0-1.21,0-1.82"/><path class="cls-1" d="M16.54,54.79a1.53,1.53,0,0,1,1.53,1.44,1.49,1.49,0,0,1-1.47,1.58,1.52,1.52,0,0,1-1.55-1.42,1.57,1.57,0,0,1,1.49-1.6"/><path class="cls-1" d="M141.84,84.84a8.5,8.5,0,1,1-8.5-8.5,8.5,8.5,0,0,1,8.5,8.5"/><path class="cls-2" d="M133.86,84.59h2.62v.86h-2.62v2.69H133V85.45h-2.62v-.86H133v-2.7h.86Z"/></g></g></svg>