<svg xmlns="http://www.w3.org/2000/svg" viewBox="0 0 137.64 120.05"><defs><style>.cls-1{fill:#0d2d43;}</style></defs><title>casco</title><g id="Capa_2" data-name="Capa 2"><g id="Capa_1-2" data-name="Capa 1"><path class="cls-1" d="M126.65,64c-.15,1.87-.31,3.53-.4,5.2a11.61,11.61,0,0,1-3.66,7.67c-9.22,9.52-21,13.72-33.52,16.36a165.23,165.23,0,0,1-33,3.69c-1.47,0-2.93.49-4.4.57a48.17,48.17,0,0,1-19.82-3.36,6.9,6.9,0,0,1-3.63-3.35,6.3,6.3,0,0,0-1.81-2.12C21.9,85.63,18,82.12,16.2,76.5l-1.62,1.83c-2.4,2.73-4.81,5.45-7.17,8.21a9.32,9.32,0,0,0,2.44,14.57A93.49,93.49,0,0,0,35.9,111.65c.25.06.51.1.75.18a2.47,2.47,0,0,1,1.89,2.9,2.39,2.39,0,0,1-3,1.84c-2.44-.56-4.87-1.18-7.26-1.92a95.62,95.62,0,0,1-21.34-9.6A14.11,14.11,0,0,1,3,84.23c3.53-4.44,7.38-8.64,11.17-12.87a4.06,4.06,0,0,0,1.08-3.16,89.94,89.94,0,0,1,3.16-28.7C22.31,26.2,29.61,15.46,42,8.63,49.5,4.48,57.67,2.6,66.19,2a7.21,7.21,0,0,0,2.34-.55,17.47,17.47,0,0,1,15.55.72,63.56,63.56,0,0,1,6.45,4.37A4.07,4.07,0,0,0,92,7.39c7.61,1.37,13.49,5.66,18.66,11.1A56.07,56.07,0,0,1,120,32.08c.87,1.72.56,3.15-.81,3.84s-2.7.14-3.57-1.62A50.79,50.79,0,0,0,107.11,22c-.59-.63-1.21-1.24-1.86-1.91A52,52,0,0,0,91.51,35.92C85.29,46.79,83,58.61,83.24,71c0,.72.05,1.43.05,2.15,0,1.75-.84,2.81-2.28,2.89s-2.56-1-2.61-2.77c-.07-2.56-.13-5.12,0-7.68a69.48,69.48,0,0,1,8.9-32.2c3.52-6.16,7.24-10.56,14-16.55a22.37,22.37,0,0,0-6.59-3.71,9,9,0,0,0-9,.94c-4.69,3-8,7.3-11.39,11.69C65.47,37.4,61.88,50.86,60.55,65c-.8,8.45-.94,17-1.36,25.44A15.14,15.14,0,0,0,59.25,92c1.77-.1,3.44-.17,5.1-.31,12.22-1,24.26-2.77,36-6.6A49.26,49.26,0,0,0,119.9,72.6a4.3,4.3,0,0,0,1.15-2.26c1.16-8.58,1.39-17.13-1.24-25.53-.54-1.71,0-3,1.43-3.5s2.65.26,3.21,2A54.55,54.55,0,0,1,126.79,57a2.41,2.41,0,0,0,.86,1.71c12.84,8.33,13.43,24.57,1,33.51a29.56,29.56,0,0,1-8.43,4.24A150.79,150.79,0,0,0,84,112.8,45.49,45.49,0,0,1,56.4,120c-3.56-.23-7.11-.8-10.65-1.29a2.44,2.44,0,1,1,.7-4.83c2.54.27,5.07.66,7.61,1A40.13,40.13,0,0,0,80.8,109a151.87,151.87,0,0,1,36-16.5,29.51,29.51,0,0,0,9.89-4.76,14.83,14.83,0,0,0,.84-23.07c-.21-.19-.46-.33-.87-.62M56.12,8.55A45,45,0,0,0,34.58,20.12c-6.34,6.27-9.47,14.25-11.82,22.56-2.6,9.2-3,18.65-2.53,28.16a15.41,15.41,0,0,0,6.39,12,13.37,13.37,0,0,0,1.23.73c0-.58.07-.93.1-1.28q.9-11.79,1.8-23.57a2.47,2.47,0,0,1,2.53-2.53,2.53,2.53,0,0,1,2.37,2.84c0,.41-.08.81-.11,1.22-.67,8.93-1.32,17.86-2,26.79a2.43,2.43,0,0,0,1.9,2.83,44.49,44.49,0,0,0,17,2.69c2.63-.1,3-.44,2.92-3.12a167.46,167.46,0,0,1,3.07-36.78C61.19,34.56,69.61,19.35,85,8.44c-3.44-3.36-9.73-4.39-14.67-2.22a53.87,53.87,0,0,0-22.16,17.7A75.66,75.66,0,0,0,36.54,48.8c-.52,1.87-1.7,2.71-3.17,2.33s-2-1.7-1.64-3.46A67.6,67.6,0,0,1,46.78,18c2.93-3.33,6.23-6.33,9.34-9.47"/></g></g></svg>