<svg xmlns="http://www.w3.org/2000/svg" viewBox="0 0 41.94 41.95"><defs><style>.cls-1{fill:#fff;}</style></defs><title>facebooklogo</title><g id="Capa_2" data-name="Capa 2"><g id="Capa_1-2" data-name="Capa 1"><path class="cls-1" d="M17.89,41.92A20.87,20.87,0,0,1,0,20.82a21,21,0,0,1,41.94.07,20.55,20.55,0,0,1-5.71,14.69A21.12,21.12,0,0,1,25,42V26.87h4.1c.31-2,.62-3.94.93-5.93H23.84c0-1.18,0-2.32,0-3.46a7.08,7.08,0,0,1,.07-1.22,2.65,2.65,0,0,1,2.56-2.35c1.26-.09,2.53-.06,3.8-.09h.65V8.62c-.77-.09-1.54-.2-2.32-.27a15.33,15.33,0,0,0-5.1.18,6.92,6.92,0,0,0-5.41,6c-.18,1.42-.14,2.87-.18,4.3,0,.68,0,1.35,0,2.07H13.2v5.94h4.69Z"/></g></g></svg>