<svg xmlns="http://www.w3.org/2000/svg" viewBox="0 0 118.54 84.29"><defs><style>.cls-1{fill:#0d426d;}.cls-2{fill:#fff;}</style></defs><title>facilidadlogo</title><g id="Capa_2" data-name="Capa 2"><g id="Capa_1-2" data-name="Capa 1"><path class="cls-1" d="M41.32,82.74A41.37,41.37,0,1,1,81.54,31.66a17,17,0,0,1,.36,1.72,2.46,2.46,0,0,1-2,2.92,2.55,2.55,0,0,1-2.85-1.95c-.91-2.84-1.55-5.82-2.85-8.48-6-12.3-15.95-19.4-29.6-20.73C26.07,3.35,9.66,15.66,5.71,34,1.46,53.75,15,73.68,34.89,77.09a36.44,36.44,0,0,0,21.48-2.67c1.68-.75,3.08-.36,3.72,1a2.44,2.44,0,0,1-1.29,3.36,38.74,38.74,0,0,1-11.62,3.45c-1.94.26-3.91.36-5.86.53"/><path class="cls-1" d="M64.5,62.8H60.56a4,4,0,0,1-3.9-2.56,4,4,0,0,1,.67-4.61c4.22-4.68,8.43-9.38,12.69-14a5.85,5.85,0,0,1,8.79,0c4.27,4.63,8.47,9.33,12.69,14a4.34,4.34,0,0,1-3.28,7.2H84.35V78.08c0,3-1.56,4.56-4.59,4.56h-11a4,4,0,0,1-4.3-4.33c0-4.75,0-9.5,0-14.25Zm22.34-5c-4-4.41-7.79-8.62-11.6-12.82-.66-.74-1.24-.46-1.81.17-2.55,2.85-5.12,5.68-7.68,8.51L62,57.84h4.31c2.27,0,3.13.86,3.13,3.11q0,7.78,0,15.59V77.6h9.92c0-5.69,0-11.3,0-16.91a2.54,2.54,0,0,1,2.87-2.85c1.44,0,2.88,0,4.58,0"/><path class="cls-1" d="M38.79,23.23c.27-2.42,1-3.41,2.55-3.41s2.34,1,2.56,3.35a20.14,20.14,0,0,1,2.1.74,8.57,8.57,0,0,1,5.26,7.66,2.49,2.49,0,1,1-4.95.28,3.78,3.78,0,0,0-4-3.77c-.73,0-1.45,0-2.17,0a3.76,3.76,0,0,0-3.79,3.82c0,1,0,2.06,0,3.1a3.78,3.78,0,0,0,3.8,3.81,31.4,31.4,0,0,1,4,.23,8.7,8.7,0,0,1,7,8.3,27.25,27.25,0,0,1-.08,4.43,8.59,8.59,0,0,1-6.47,7.39l-.4.11-.37.09c-.4,2.53-1.11,3.45-2.63,3.42s-2.19-.94-2.54-3.42a9.1,9.1,0,0,1-5.36-3.17,8.4,8.4,0,0,1-2-5.32,2.48,2.48,0,1,1,4.95-.17,3.8,3.8,0,0,0,4.11,3.82c.69,0,1.38,0,2.07,0a3.77,3.77,0,0,0,3.74-3.77c0-1.06,0-2.13,0-3.2a3.78,3.78,0,0,0-3.75-3.76,33.79,33.79,0,0,1-3.91-.2,8.71,8.71,0,0,1-7.21-8.49,29.79,29.79,0,0,1,.09-4.33c.51-3.86,3.12-6.51,7.26-7.54"/><path class="cls-1" d="M118.54,75.79a8.5,8.5,0,1,1-8.5-8.5,8.51,8.51,0,0,1,8.5,8.5"/><path class="cls-2" d="M110.56,75.54h2.61v.86h-2.61v2.69h-.87V76.4h-2.62v-.86h2.62V72.83h.87Z"/></g></g></svg>