<svg xmlns="http://www.w3.org/2000/svg" viewBox="0 0 116.21 97.84"><defs><style>.cls-1{fill:#0d426d;}.cls-2{fill:#fff;}</style></defs><title>Garantialogo</title><g id="Capa_2" data-name="Capa 2"><g id="Capa_1-2" data-name="Capa 1"><path class="cls-1" d="M28.88,81.19c-1.25,1.38-2.52,2.88-3.91,4.27-2.8,2.8-6.16,2.73-8.91-.09q-2.41-2.48-4.81-5a5.62,5.62,0,0,1,.09-8.31c1.5-1.53,2.93-3.1,4.27-4.54-1-2.79-2.09-5.7-3.21-8.59a1.16,1.16,0,0,0-.88-.55c-1.82-.05-3.65,0-5.47,0-3.84,0-6-2.24-6-6.09C0,50,0,47.76,0,45.49c0-3.78,2.25-6,6-6,1.83,0,3.66,0,5.48,0,.54,0,.86-.1,1-.7a36.07,36.07,0,0,1,4.06-9.37c-1.52-1.57-3.07-3.13-4.57-4.72a5.49,5.49,0,0,1-1.31-6,6.71,6.71,0,0,1,1.48-2.26c1.69-1.75,3.46-3.43,5.22-5.11a5.73,5.73,0,0,1,8.34.12c1.5,1.47,3.07,2.86,4.76,4.43.64-.32,1.58-.84,2.57-1.24q2.73-1.08,5.52-2a.93.93,0,0,0,.79-1.06c0-1.83,0-3.66,0-5.49,0-3.71,2.34-6,6-6h6.9A5.58,5.58,0,0,1,58.26,5.9c0,1.94,0,3.87,0,5.8,0,.52.13.79.67.92a33.07,33.07,0,0,1,9.37,4l4.27-4.16c3-2.87,6.07-2.82,9,.14,1.56,1.6,3.13,3.19,4.67,4.81,2.58,2.7,2.51,5.9-.1,8.55-1.43,1.44-2.78,3-4.25,4.54.6,1.37,1.37,3,2,4.63a32.32,32.32,0,0,1,1.19,3.56.9.9,0,0,0,1.06.79c1.79,0,3.58,0,5.37,0a5.74,5.74,0,0,1,6.11,6.1c0,2.31,0,4.61,0,6.92a5.71,5.71,0,0,1-6,6.06c-1.86,0-3.72,0-5.58,0a1.18,1.18,0,0,0-.86.57c-1.28,3.11-2.52,6.24-3.85,9.57l3.93,4c2.82,2.92,2.79,6.08-.09,8.9-1.65,1.61-3.29,3.23-4.95,4.82a5.59,5.59,0,0,1-8.44-.21c-1.43-1.49-2.84-3-4.19-4.43l-6.67,2.8c-.22.09-.45.16-.67.23-1.94.62-1.94.62-1.94,2.69,0,1.43,0,2.85,0,4.28a5.72,5.72,0,0,1-6,6q-3.55,0-7.1,0a5.68,5.68,0,0,1-5.93-6c0-1.87,0-3.73,0-5.6a1.18,1.18,0,0,0-.48-.91c-1.6-.64-3.26-1.12-4.85-1.78s-3-1.46-5-2.4M55.11,9.69c0-1.29,0-2.58,0-3.87a2.45,2.45,0,0,0-2.65-2.67h-7.1A2.54,2.54,0,0,0,42.52,6c0,2.44,0,4.88,0,7.32,0,1.18-.35,1.6-1.53,1.89a37.09,37.09,0,0,0-10,4,1.63,1.63,0,0,1-2.42-.34c-1.66-1.73-3.32-3.47-5-5.19a2.59,2.59,0,0,0-4.08,0c-1.66,1.61-3.31,3.21-4.95,4.82q-2.12,2.07-.09,4.17,2.51,2.59,5,5.16a1.67,1.67,0,0,1,.29,2.51,32.29,32.29,0,0,0-4.61,10.77c-.28,1.16-.7,1.53-1.88,1.53H6c-1.9,0-2.81.9-2.82,2.8,0,2.34,0,4.68,0,7,0,1.92.88,2.8,2.79,2.8,2.47,0,4.94,0,7.41,0a1.58,1.58,0,0,1,1.78,1.42,30,30,0,0,0,4,10.13,1.66,1.66,0,0,1-.36,2.5C17,71,15.29,72.65,13.55,74.36a2.47,2.47,0,0,0-.05,3.84l4.73,4.89c1.63,1.67,2.93,1.7,4.6.07s3.34-3.27,5-4.89a1.59,1.59,0,0,1,2.43-.14,14.92,14.92,0,0,0,1.36.87,37.09,37.09,0,0,0,9.41,3.67,1.66,1.66,0,0,1,1.46,1.78c-.07,2.46-.14,4.93-.16,7.4a2.62,2.62,0,0,0,2.85,2.84c2.34,0,4.67,0,7,0A2.62,2.62,0,0,0,55.1,91.8c0-2.41,0-4.81,0-7.22a1.83,1.83,0,0,1,1.66-2.07,32.26,32.26,0,0,0,9.89-4.05,1.6,1.6,0,0,1,2.41.36q2.46,2.64,4.94,5.26c1.32,1.39,2.64,1.41,4,.06,1.69-1.62,3.36-3.26,5-4.89,1.44-1.41,1.45-2.69.05-4.14q-2.5-2.58-5-5.15a1.63,1.63,0,0,1-.33-2.27,33.68,33.68,0,0,0,4.77-11.14,1.54,1.54,0,0,1,1.68-1.31c2.5,0,5,.14,7.49.15a2.59,2.59,0,0,0,2.78-2.81q0-3.55,0-7.12a2.6,2.6,0,0,0-2.83-2.85c-2.46,0-4.93,0-7.4,0a1.6,1.6,0,0,1-1.74-1.36,35.93,35.93,0,0,0-4.13-10.32,1.64,1.64,0,0,1,.35-2.27c1.73-1.67,3.46-3.33,5.18-5,1.38-1.35,1.39-2.65,0-4-1.62-1.69-3.25-3.36-4.88-5-1.41-1.44-2.68-1.45-4.12,0-1.72,1.69-3.44,3.37-5.14,5.06a1.58,1.58,0,0,1-2.18.36,29.66,29.66,0,0,0-11.15-4.66,1.59,1.59,0,0,1-1.37-1.74c0-1.29,0-2.57,0-3.86"/><path class="cls-1" d="M48.76,77.35c-1.89,0-3.79,0-5.68,0-1.61,0-2.15-.55-2.15-2.13,0-1.29,0-2.58,0-3.87a10.72,10.72,0,0,0-4.38-9.15,19.16,19.16,0,0,1-6.84-10.53A19.61,19.61,0,1,1,61.42,61.79,23.36,23.36,0,0,0,58.37,65a8.06,8.06,0,0,0-1.69,5.41c.09,1.59,0,3.18,0,4.78s-.54,2.12-2.16,2.13c-1.92,0-3.85,0-5.78,0m-5.2-10.3c3.33,0,6.6,0,9.88,0a.83.83,0,0,0,.62-.49,17.62,17.62,0,0,1,5.38-7.25,15.74,15.74,0,0,0,5.72-12.92A16.22,16.22,0,0,0,46.68,30.62c-6.84.89-11.5,4.87-13.57,11.4s-.55,12.33,4.55,16.92c2.56,2.31,4.87,4.69,5.9,8.11m9.91,3.26h-9.3v3.77h9.3Z"/><path class="cls-1" d="M23.6,34.89c1.29.21,2.77.4,4.22.69a1.47,1.47,0,0,1,1.1,1.8,1.41,1.41,0,0,1-1.59,1.25c-1.47-.16-2.93-.4-4.39-.68a1.42,1.42,0,0,1-1.16-1.74c.1-.81.76-1.33,1.82-1.32"/><path class="cls-1" d="M70.49,38.65a1.6,1.6,0,0,1-1.8-1.37,1.45,1.45,0,0,1,1.21-1.72c1.38-.29,2.79-.49,4.19-.66a1.5,1.5,0,0,1,1.75,1.3A1.47,1.47,0,0,1,74.59,38c-1.42.28-2.86.48-4.1.68"/><path class="cls-1" d="M29.53,24c1.21,0,4.84,2.75,4.85,3.59a2.05,2.05,0,0,1-.62,1.55,1.78,1.78,0,0,1-1.65.06,19.61,19.61,0,0,1-3.26-2.57A1.88,1.88,0,0,1,28.53,25c.15-.48.77-.8,1-1"/><path class="cls-1" d="M64.46,29.57c-.31-.27-1-.57-1.12-1a1.9,1.9,0,0,1,.28-1.65,26.58,26.58,0,0,1,3.31-2.66,1.39,1.39,0,0,1,1.93.29A1.29,1.29,0,0,1,69,26.37c-1.18,1.09-2.5,2-3.78,3-.12.1-.32.09-.76.18"/><path class="cls-1" d="M40.09,20a6.13,6.13,0,0,1,1.42-1.26,1.25,1.25,0,0,1,1.7.71,27.32,27.32,0,0,1,1.3,3.72,1.37,1.37,0,0,1-.9,1.64,1.31,1.31,0,0,1-1.8-.45c-.64-1.33-1.1-2.74-1.72-4.36"/><path class="cls-1" d="M55.41,18.62c1.34,0,2.12,1,1.84,1.95A29.24,29.24,0,0,1,56,24a1.44,1.44,0,0,1-1.85.84A1.49,1.49,0,0,1,53.12,23a25.41,25.41,0,0,1,1.26-3.52c.21-.45.81-.7,1-.88"/><path class="cls-1" d="M47.13,47.63l7.08-6.8,0-.26h-2c-1.22,0-1.93-.64-1.91-1.62s.76-1.57,2-1.55l5.88.13a1.59,1.59,0,0,1,1.74,1.78c0,2-.08,4.06-.15,6.09,0,1.29-.62,1.93-1.62,1.91s-1.54-.71-1.54-2V43c-.38.34-.65.56-.9.81-2.33,2.22-4.64,4.45-7,6.68-1,1-1.62,1-2.74.15-.89-.67-1.77-1.36-2.77-2.12-.21.4-.4.74-.56,1.09-.65,1.38-1.26,2.77-1.94,4.14a1.56,1.56,0,1,1-2.85-1.26c1.07-2.37,2.16-4.74,3.29-7.08a1.52,1.52,0,0,1,2.47-.55c1.17.86,2.31,1.76,3.57,2.73"/><path class="cls-1" d="M116.21,85.84a8.5,8.5,0,1,1-8.5-8.5,8.5,8.5,0,0,1,8.5,8.5"/><path class="cls-2" d="M108.23,85.6h2.62v.86h-2.62v2.69h-.87V86.46h-2.62V85.6h2.62V82.89h.87Z"/></g></g></svg>