<svg xmlns="http://www.w3.org/2000/svg" viewBox="0 0 120.22 120.38"><defs><style>.cls-1{fill:#0d2d43;}</style></defs><title>industria</title><g id="Capa_2" data-name="Capa 2"><g id="Capa_1-2" data-name="Capa 1"><path class="cls-1" d="M12,58.36a50.26,50.26,0,0,1,3.75-20.81,7.91,7.91,0,0,1-5.1-5.44,7.65,7.65,0,0,1,2-7.95c3.65-3.67,7.48-7.18,10.94-11a8.34,8.34,0,0,1,13.36.8L44,10.77a21.57,21.57,0,0,1,.05-4.55A7.83,7.83,0,0,1,51.9.08C57.08.06,62.27.31,67.43,0a8.32,8.32,0,0,1,8.64,10.69l7.13,3.18A8.05,8.05,0,0,1,89,10.22a7.27,7.27,0,0,1,6.37,1.88c4.21,4.12,8.41,8.25,12.49,12.48,3.31,3.43,2.34,9.61-1.75,12.1-.5.3-1,.55-1.59.85a50.24,50.24,0,0,1,3.76,20.83c.34.11.64.22,1,.31a9.72,9.72,0,0,1,6.92,10.59c-.68,5.24-4.37,8.73-9.47,9h-1q-45.52,0-91.06,0c-5.1,0-8.83-2.66-10.1-7.16a9.84,9.84,0,0,1,6.6-12.41l.93-.31M46,14.43A44.39,44.39,0,0,0,16,58.14h16c0-.71,0-1.37,0-2A8,8,0,0,1,40,48.2q20.16-.06,40.34,0A7.81,7.81,0,0,1,88,54.54a30,30,0,0,1,.32,3.57h15.86c1.13-20.58-13.32-38.68-30-43.53q-.29.53-.57,1.08c-2.09,4.18-4.15,8.37-6.27,12.53a8,8,0,0,1-14.46,0C51.56,25.6,50.3,23,49,20.44c-1-2-2-3.94-3-6M60.1,62.21q-22.86,0-45.71,0c-4.73,0-7.58,4.13-5.87,8.39,1,2.38,3,3.62,6,3.62h91.17c.3,0,.59,0,.88,0a5.86,5.86,0,0,0,5.49-6.94c-.54-3.22-2.78-5.06-6.27-5.07H60.1m.11-58.12c-2.75,0-5.51,0-8.26,0A3.93,3.93,0,0,0,48.31,10c2.67,5.47,5.4,10.9,8.11,16.35a4,4,0,0,0,7.41-.05c2.69-5.41,5.4-10.81,8.06-16.23a4,4,0,0,0-3.67-5.93c-2.67,0-5.34,0-8,0M36,58.11H84.1c.57-4-1.4-6.07-5.33-6-7.35.17-14.7,0-22,0H40.32a4,4,0,0,0-4.14,3.12,19.28,19.28,0,0,0-.16,2.8M33.46,16.17c-1.52-2.28-4.29-2.77-6.05-1.05-4.09,4-8.16,8-12.12,12.14a3.87,3.87,0,0,0,2.3,6.46A48.84,48.84,0,0,1,33.46,16.17M86.74,16c.05.07.08.16.14.2a49.42,49.42,0,0,1,15.49,16.94,1.26,1.26,0,0,0,1.17.29,4,4,0,0,0,1.32-6.14q-6-6.22-12.22-12.22c-1.82-1.75-4.5-1.22-5.9.93"/><path class="cls-1" d="M16,91.06a18.44,18.44,0,0,1,9.6-6.1,22.79,22.79,0,0,1,5.19-.67q29.56-.08,59.13,0a17.72,17.72,0,0,1,13.58,5.92c.14.16.29.3.44.45s.07,0,.27.05c0-.84,0-1.65,0-2.46a6,6,0,0,1,12,0c0,2,0,4.09,0,6.14A1.62,1.62,0,0,0,117,95.9a8,8,0,0,1-4.61,14.4c-1.71,0-3.42,0-5.13,0a1.35,1.35,0,0,0-1.38.77,18.31,18.31,0,0,1-16.18,9.24c-5,.1-9.94,0-14.91,0a7.57,7.57,0,0,1-7.25-4.47,7.56,7.56,0,0,0-13.78,0,7.57,7.57,0,0,1-7.22,4.51c-5.56,0-11.12.12-16.67,0a17.55,17.55,0,0,1-15.44-9.08,1.61,1.61,0,0,0-1.67-.92c-1.62,0-3.25,0-4.88,0A7.75,7.75,0,0,1,.44,104.8a7.68,7.68,0,0,1,2.77-8.9A1.65,1.65,0,0,0,4,94.37c0-2,0-4,0-6a5.85,5.85,0,0,1,6-6,5.88,5.88,0,0,1,6,6c0,.79,0,1.58,0,2.71M60.6,88.27H31a15.16,15.16,0,0,0-9.5,3A14.24,14.24,0,0,0,16.84,107,13.68,13.68,0,0,0,30,116.31c5.39.06,10.78,0,16.17,0a4.21,4.21,0,0,0,4.09-2.52,11,11,0,0,1,10.34-6.47c4.72,0,8.18,2.3,10.32,6.51a4.21,4.21,0,0,0,4.12,2.48c4.81,0,9.61,0,14.41,0a18,18,0,0,0,2.74-.23A14,14,0,0,0,90,88.27H60.6m-48.41,10c-1.48,0-3.1-.11-4.71,0a4,4,0,0,0-.05,7.9c1.64.14,3.3,0,4.76,0Zm95.85,8c1.45,0,3,.09,4.6,0a3.84,3.84,0,0,0,3.56-3.83,3.76,3.76,0,0,0-3.18-4,41.62,41.62,0,0,0-5,0ZM12,94.23c0-2.11,0-4.1,0-6.09a1.85,1.85,0,0,0-2-1.84A1.78,1.78,0,0,0,8.05,88c-.1,2.06,0,4.12,0,6.23Zm96.24,0h4c0-2,0-3.88,0-5.78a2,2,0,1,0-4,0c0,1.87,0,3.74,0,5.74"/><path class="cls-1" d="M38.32,96.15a10,10,0,0,1-1.06,1.75q-4.78,4.84-9.63,9.64a2,2,0,1,1-2.85-2.81Q29.63,99.86,34.5,95a1.81,1.81,0,0,1,2.37-.49,8.69,8.69,0,0,1,1.45,1.63"/><path class="cls-1" d="M82.32,94c.64.6,1.44,1,1.6,1.58a2.71,2.71,0,0,1-.4,2.13A47.1,47.1,0,0,1,80,101.26c-2,2-4.06,4.07-6.1,6.09-1.13,1.13-2.28,1.25-3.17.38s-.82-2,.29-3.17c3.12-3.13,6.23-6.26,9.38-9.36A13.22,13.22,0,0,1,82.32,94"/><path class="cls-1" d="M50.4,96.22a12.37,12.37,0,0,1-1.1,1.67q-4.78,4.85-9.62,9.63c-1,1-2.09,1-3,.19s-.88-2,.18-3.06q4.76-4.79,9.53-9.54c.66-.66,1.45-1.19,2.32-.64a9.32,9.32,0,0,1,1.66,1.75"/><path class="cls-1" d="M96.47,96.21a10.1,10.1,0,0,1-1,1.64q-4.83,4.89-9.72,9.73a2,2,0,1,1-2.84-2.8c3.25-3.29,6.53-6.55,9.8-9.81a1.68,1.68,0,0,1,2.24-.47,9.59,9.59,0,0,1,1.55,1.71"/></g></g></svg>