<svg xmlns="http://www.w3.org/2000/svg" viewBox="0 0 41.24 41.26"><defs><style>.cls-1{fill:#fff;}</style></defs><title>instagramlogo</title><g id="Capa_2" data-name="Capa 2"><g id="Capa_1-2" data-name="Capa 1"><path class="cls-1" d="M10.56,0H30.69c.42.07.85.11,1.26.21a11.2,11.2,0,0,1,9,8.49c.17.6.23,1.23.34,1.85V30.69a3.25,3.25,0,0,1-.08.43,18.84,18.84,0,0,1-.86,3.2,11,11,0,0,1-10.49,6.9c-6.12.08-12.24,0-18.36,0a11,11,0,0,1-6.51-2A11.19,11.19,0,0,1,0,29.63q0-9,0-18A12.09,12.09,0,0,1,.22,9.27,11.19,11.19,0,0,1,8.7.34C9.31.17,9.94.11,10.56,0M3.66,20.62v8.94a8.18,8.18,0,0,0,.42,2.77,7.71,7.71,0,0,0,7.52,5.25c6,0,12,0,18,0a8.73,8.73,0,0,0,2.69-.41,7.63,7.63,0,0,0,5.26-7.53c0-6,0-12,0-18a9,9,0,0,0-.41-2.69,7.62,7.62,0,0,0-7.49-5.27q-9,0-18.08,0A7.66,7.66,0,0,0,5.1,6.91a7.78,7.78,0,0,0-1.44,4.73v9"/><path class="cls-1" d="M20.63,31.25A10.63,10.63,0,1,1,31.25,20.6,10.68,10.68,0,0,1,20.63,31.25m7-10.62a7,7,0,1,0-7,7,7,7,0,0,0,7-6.95"/><path class="cls-1" d="M31.69,6.9A2.68,2.68,0,1,1,29,9.56,2.7,2.7,0,0,1,31.69,6.9"/></g></g></svg>