<?xml version="1.0" encoding="UTF-8"?>
<svg id="Capa_2" data-name="Capa 2" xmlns="http://www.w3.org/2000/svg" viewBox="0 0 1.34 87.23">
  <defs>
    <style>
      .cls-1 {
        fill: #0f6447;
      }
    </style>
  </defs>
  <g id="Capa_1-2" data-name="Capa 1">
    <g>
      <path class="cls-1" d="M1.3,10.42c.03,1.43.36,3.4-1.29,3.9v-3.9s1.29,0,1.29,0Z"/>
      <path class="cls-1" d="M1.3,5.21c.03,1.43.36,3.4-1.29,3.9v-3.9s1.29,0,1.29,0Z"/>
      <path class="cls-1" d="M1.3,0C1.33,1.43,1.66,3.4,0,3.9V0s1.29,0,1.29,0Z"/>
      <path class="cls-1" d="M1.3,57.29c.03,1.43.36,3.4-1.29,3.9v-3.9s1.29,0,1.29,0Z"/>
      <path class="cls-1" d="M1.3,62.5c.03,1.43.36,3.4-1.29,3.9v-3.9s1.29,0,1.29,0Z"/>
      <path class="cls-1" d="M1.3,31.25c.03,1.43.36,3.4-1.29,3.9v-3.9s1.29,0,1.29,0Z"/>
      <path class="cls-1" d="M1.3,52.08c.03,1.43.36,3.4-1.29,3.9v-3.9s1.29,0,1.29,0Z"/>
      <path class="cls-1" d="M1.3,36.46c.03,1.43.36,3.4-1.29,3.9v-3.9s1.29,0,1.29,0Z"/>
      <path class="cls-1" d="M1.3,83.33c.03,1.43.36,3.4-1.29,3.9v-3.9s1.29,0,1.29,0Z"/>
      <path class="cls-1" d="M1.3,41.67c.03,1.43.36,3.4-1.29,3.9v-3.9s1.29,0,1.29,0Z"/>
      <path class="cls-1" d="M1.3,78.12c.03,1.43.36,3.4-1.29,3.9v-3.9s1.29,0,1.29,0Z"/>
      <path class="cls-1" d="M1.3,67.71c.03,1.43.36,3.4-1.29,3.9v-3.9s1.29,0,1.29,0Z"/>
      <path class="cls-1" d="M1.3,46.87c.03,1.43.36,3.4-1.29,3.9v-3.9s1.29,0,1.29,0Z"/>
      <path class="cls-1" d="M1.3,72.92c.03,1.43.36,3.4-1.29,3.9v-3.9s1.29,0,1.29,0Z"/>
      <path class="cls-1" d="M1.3,26.04c.03,1.43.36,3.4-1.29,3.9v-3.9s1.29,0,1.29,0Z"/>
      <path class="cls-1" d="M1.3,20.83c.03,1.43.36,3.4-1.29,3.9v-3.9s1.29,0,1.29,0Z"/>
      <path class="cls-1" d="M1.3,15.62c.03,1.43.36,3.4-1.29,3.9v-3.9s1.29,0,1.29,0Z"/>
    </g>
  </g>
</svg>