<svg xmlns="http://www.w3.org/2000/svg" viewBox="0 0 396.4 44.81"><defs><style>.cls-1{fill:#fff;}</style></defs><title>Recurso 2logo</title><g id="Capa_2" data-name="Capa 2"><g id="Capa_1-2" data-name="Capa 1"><path class="cls-1" d="M70.05,44.81q0-21.55,0-43.11C70,.46,70.31,0,71.63,0c16.11,0,32.23,0,48.34,0a15.89,15.89,0,0,1,12.41,5.26,10.46,10.46,0,0,1-.18,14.62c-.74.78-1.56,1.48-2.46,2.34,1.09,1.05,2.2,2,3.22,3.11,3.19,3.33,3.12,10.55-.51,14.11a16.77,16.77,0,0,1-11.92,5.08c-15.91.11-31.81,0-47.72.06-.71,0-1.42.12-2.14.18ZM85.12,34.36h21.71c3,0,6.1,0,9.15,0,2.61,0,4.19-1.54,4.09-3.79-.08-2.09-1.63-3.41-4.14-3.42q-14.81,0-29.6,0a9.07,9.07,0,0,0-1.21.15Zm0-16.87c.5,0,.85.08,1.21.08h29.13a8.78,8.78,0,0,0,1.85-.16,3.39,3.39,0,0,0,2.5-4.75A3.91,3.91,0,0,0,116,10.54H86.39c-.4,0-.79.07-1.27.11Z"/><path class="cls-1" d="M209.85,44.81a11.19,11.19,0,0,1-.21-1.51q0-21,0-42c0-.3,0-.6.07-1.07.58,0,1.12-.13,1.66-.13,4.18,0,8.37,0,12.55,0a3.09,3.09,0,0,1,1.91,1Q235,11,244.13,20.93l1.17,1.28,5.25-5.74c4.65-5.09,9.32-10.17,13.94-15.29A3.21,3.21,0,0,1,267.17,0c4,.05,7.95,0,11.93,0,.51,0,1,0,1.73.08V44.81h-.31c-1.37-.06-2.75-.19-4.12-.18-3,0-5.93.12-8.9.18H266c0-.77-.11-1.53-.11-2.3q0-11.23,0-22.48V18.42l-.36-.12L245.3,40.44,224.78,18c-.05.87-.09,1.31-.09,1.75,0,7.7,0,15.39,0,23.09a14.45,14.45,0,0,1-.25,2h-1.24c-2.3-.06-4.6-.17-6.9-.18-2,0-4.08.12-6.12.18Z"/><path class="cls-1" d="M0,11.53c.63-2.32,1.27-4.62,3.1-6.4A17.18,17.18,0,0,1,15.35.06c11.51,0,23,0,34.53,0,5,0,9.33,1.54,12.74,5.28a9.92,9.92,0,0,1,2.76,6.83q0,10.32,0,20.63a9.73,9.73,0,0,1-3.88,7.71,17.92,17.92,0,0,1-11.87,4.12q-16.87,0-33.76,0A17.18,17.18,0,0,1,3,39.5C1.33,37.77.7,35.6,0,33.41ZM32.81,34.36h0c3.3,0,6.61,0,9.91,0A7.37,7.37,0,0,0,50.3,26.7c0-2.82,0-5.64,0-8.47a7.33,7.33,0,0,0-7.68-7.66c-6.56-.06-13.11-.05-19.67,0a7.49,7.49,0,0,0-7.72,7.69c0,2.62,0,5.24,0,7.86,0,5.1,3.14,8.22,8.31,8.25,3.09,0,6.19,0,9.29,0"/><path class="cls-1" d="M285.48,44.81c1.53-2.49,3-5,4.58-7.47q11.19-17.88,22.39-35.77A2.79,2.79,0,0,1,315.26,0c3.91.12,7.84.08,11.76,0a2.37,2.37,0,0,1,2.35,1.28q9,14.39,18,28.73c2.7,4.3,5.45,8.58,8.16,12.88a18.7,18.7,0,0,1,.95,1.9h-.62c-.61-.06-1.21-.18-1.82-.18-4.34,0-8.68-.07-13,0a2.89,2.89,0,0,1-2.87-1.55c-3.82-6.15-7.71-12.26-11.57-18.38-1.8-2.86-3.59-5.72-5.5-8.78-.43.65-.71,1-1,1.47q-8.22,13-16.42,26.07a2.15,2.15,0,0,1-2.12,1.16c-3.36-.06-6.71,0-10.07,0-1.69,0-3.39.12-5.08.18Z"/><path class="cls-1" d="M140.11,44.81c-.09-1.32-.23-2.63-.26-4,0-2.09,0-4.19,0-6.39h65V44.81h-.31c-.66-.06-1.32-.18-2-.18q-29.78,0-59.57,0a15.5,15.5,0,0,0-1.67.18Z"/><path class="cls-1" d="M205.06,10.48H140V.14c.63,0,1.23-.09,1.84-.09q30.66,0,61.32,0c1.6,0,2,.47,2,2-.13,2.76,0,5.52,0,8.47"/><path class="cls-1" d="M139.85,27.14c0-3.05,0-5.91,0-8.77,0-.26.43-.66.72-.73a7.38,7.38,0,0,1,1.7-.07q30.58,0,61.17,0c1.29,0,1.7.33,1.63,1.63-.11,2.25-.06,4.52,0,6.77,0,.85-.26,1.26-1.15,1.18-.46,0-.93,0-1.39,0H139.85"/><path class="cls-1" d="M373.42,33.47l-1.39.15c-1.56-2.61-3.66-3.48-6.12-2.34a2.76,2.76,0,0,0-1.4,1.89c0,.55.77,1.43,1.39,1.69a35,35,0,0,0,3.87,1.06,10.8,10.8,0,0,1,2.43.93,3.29,3.29,0,0,1,1.2,4.89c-1.62,2.4-4.12,2.41-6.66,2.14a4.87,4.87,0,0,1-4.51-3.4,6.74,6.74,0,0,1-.15-1l1.46-.2c1.25,3.31,4,3.73,6.72,2.89a3.43,3.43,0,0,0,1.89-2.1c.29-1.12-.74-1.81-1.81-2.12-1.28-.37-2.59-.66-3.88-1-2.76-.76-3.85-1.84-3.83-3.74s1.47-3.31,4-3.92c2.68-.64,7,1.21,6.82,4.23"/><path class="cls-1" d="M378.45,43.66c1.83-4.49,3.63-8.94,5.48-13.37a1.57,1.57,0,0,1,2.53-.11c2,4.47,3.94,9,5.9,13.47-1.44.46-2.19.12-2.68-1.27-1-2.91-1.11-2.88-4.16-2.88-3.43,0-3.48,0-4.7,3.16-.47,1.21-1.18,1.37-2.37,1M387.93,38l-2.73-6.87L382.62,38Z"/><path class="cls-1" d="M374.49,43.73V42.11l1.72-.11c0,.6.06,1.12.09,1.73Z"/><path class="cls-1" d="M394.66,42l1.74.08v1.64h-1.74Z"/></g></g></svg>