<svg xmlns="http://www.w3.org/2000/svg" viewBox="0 0 135.76 109.46"><defs><style>.cls-1{fill:#0d2d43;}</style></defs><title>mineria</title><g id="Capa_2" data-name="Capa 2"><g id="Capa_1-2" data-name="Capa 1"><path class="cls-1" d="M6.57,87.47c0-5.16.08-10.22,0-15.27A61.7,61.7,0,0,1,17.07,35.76a3.2,3.2,0,0,0,.43-1.65c0-2.46,0-4.93,0-7.39,0-3.11,1.47-5.5,4.08-6.51A6.4,6.4,0,0,1,29,21.91c.13.13.27.24.17.15C33.22,19.63,37.05,17,41.22,15S49.74,11.86,54,10.4A1.79,1.79,0,0,0,55.4,9.13,13.06,13.06,0,0,1,67.87,0,13.25,13.25,0,0,1,80.4,9.11a2,2,0,0,0,1.19,1.19A61.59,61.59,0,0,1,105.89,22a5.58,5.58,0,0,0,.5.32,7,7,0,0,1,4.68-2.59,6.55,6.55,0,0,1,7.14,6.44c.05,2.6,0,5.2,0,7.8a4,4,0,0,0,.58,2,61.1,61.1,0,0,1,10.34,34.44v17c.56.12,1.08.22,1.59.35a6.44,6.44,0,0,1,5,6.13c.06,3,.06,6.11,0,9.16a6.53,6.53,0,0,1-6.42,6.37H7.12c-4.38,0-7.1-2.71-7.11-7.06C0,99.94,0,97.47,0,95a12.05,12.05,0,0,1,.14-2.17c.63-3,2.73-4.77,6.42-5.37M50.42,68H11.05V87.5H124.67V68H85.25a17.63,17.63,0,0,1-16.6,15.21C61.49,83.53,52.41,79,50.42,68m17.45,37.13h60.48c2.32,0,3-.69,3-3V95.23c0-2.7-.59-3.28-3.29-3.28H7.26c-2.15,0-2.87.72-2.87,2.87,0,2.33,0,4.65,0,7,0,2.69.59,3.28,3.29,3.28h60.2m50.35-60.9c0,2.64,0,5.29,0,7.93,0,1.79-.81,2.6-2.58,2.61-2.51,0-5,0-7.52,0-2.34,0-3-.68-3-3,0-7.84,0-15.68,0-23.52a2.22,2.22,0,0,0-.89-2A57.6,57.6,0,0,0,84.63,15.66c-1.15-.36-2.33-.63-3.62-1v1.7c0,11.35,0,22.7,0,34.05a10,10,0,0,0,1.65,6.09c1.36,2,2,4.5,3,6.86h38.72a50.13,50.13,0,0,0-6.12-19.2M50.5,63.41a19.27,19.27,0,0,1,3.38-8.29,4.55,4.55,0,0,0,.82-2.45c0-12.12,0-24.25,0-36.38V14.77a6.24,6.24,0,0,0-.81.13A57,57,0,0,0,31.67,26.13a2.65,2.65,0,0,0-1,2.32c0,7.84,0,15.68,0,23.52,0,2-.77,2.74-2.71,2.76-2.55,0-5.11,0-7.66,0-2,0-2.74-.77-2.76-2.71s0-3.65,0-5.47V44.13a50.29,50.29,0,0,0-6.11,19.28ZM76.6,50.46c0-12.84.07-25.46,0-38.07a7.86,7.86,0,0,0-4.6-7A8.72,8.72,0,0,0,59.12,13.3c0,12,0,24,0,36,0,.35,0,.69.06,1.19a17.78,17.78,0,0,1,17.42,0M81,65.65A13.13,13.13,0,1,0,67.89,78.8,13.15,13.15,0,0,0,81,65.65M26.28,50.29V38.79c0-4,0-8.1,0-12.15,0-1.85-1.38-3-2.89-2.42-1.22.45-1.49,1.43-1.49,2.63,0,7.46,0,14.93,0,22.4,0,.34.06.69.09,1Zm83.19,0h4.37V43.07c0-5.51,0-11,0-16.53a2.2,2.2,0,0,0-2.18-2.45,2.15,2.15,0,0,0-2.18,2.3c0,7.92,0,15.84,0,23.86"/></g></g></svg>