<?xml version="1.0" encoding="UTF-8"?>
<svg id="Capa_2" data-name="Capa 2" xmlns="http://www.w3.org/2000/svg" viewBox="0 0 10.45 15.21">
  <defs>
    <style>
      .cls-1 {
        fill: #a0b0ab;
      }

      .cls-2 {
        fill: #c3cdca;
      }

      .cls-3 {
        fill: #b7bdbc;
      }

      .cls-4 {
        fill: #a4aeab;
      }

      .cls-5 {
        fill: #0f6853;
      }

      .cls-6 {
        fill: #afb7b4;
      }

      .cls-7 {
        fill: #ecf5f4;
      }

      .cls-8 {
        fill: #b7bfbd;
      }
    </style>
  </defs>
  <g id="Capa_1-2" data-name="Capa 1">
    <g>
      <path class="cls-7" d="M8.56,1.53c1.37,1.5,1.77,3.23,1.3,5.21-.72,1.19-1.59,2.28-2.61,3.26-.07.19.07.46,0,.65-.39,1.1-.68,2.36-1.3,3.26-.48-.17-.91.05-1.3.65-.07.04-.04.8-.64.65l-.66-1.95c.13-.52,1.16-1.4.65-2.61l-1.25.61c-.2-.38.08-1.12-.04-1.26l.16-.58c1.02.7-2.93-1.51-2.11-2.68C.2,6.08.07,4.24.74,3.48c.1-.87.53-1.73,1.3-2.6.03-.06.43.03.65,0,1.93-.75,4.14-.51,5.86.65Z"/>
      <path class="cls-6" d="M9.86,6.73c.29-.74-.95-4.86-1.3-5.21,2.55,2.21,2.02,2.52,1.3,5.21Z"/>
      <path class="cls-1" d="M8.56,1.53c-.57-.57-4.8-.81-5.86-.65C4.88-.62,6.71-.07,8.56,1.53Z"/>
      <path class="cls-3" d="M9.86,6.73c-.5,1.85-.4,2.76-2.61,3.26.02-.04-.65-.12-.08-.95.53-.78,2.62-2.14,2.69-2.31Z"/>
      <path class="cls-8" d="M.74,6.73c.6,2.07,5.36,3.19,1.95,3.26-.93-1.14-2.18-.87-2.61-3.26.18-.57.4-.56.65,0Z"/>
      <path class="cls-2" d="M.74,3.48c-.18.57-.4.56-.65,0,.23-1.36.65-2.04,1.95-2.6-.1.19-.01,1.13-.36,1.88-.2.44-.92.64-.94.73Z"/>
      <path class="cls-4" d="M.74,6.73H.09C-.03,6.06-.03,4.16.09,3.48h.65c-.24.79.17,2.31,0,3.26Z"/>
      <path class="cls-5" d="M2.9,7.18c-1.52-2.02.26-5.6,3.07-4.74,4.71,1.44.13,8.99-3.07,4.74Z"/>
    </g>
  </g>
</svg>