<svg xmlns="http://www.w3.org/2000/svg" viewBox="0 0 125.89 105.7"><defs><style>.cls-1{fill:#0d426d;}.cls-2{font-size:13px;fill:#fff;font-family:MyriadPro-Regular, Myriad Pro;}</style></defs><title>rayologo</title><g id="Capa_2" data-name="Capa 2"><g id="Capa_1-2" data-name="Capa 1"><path class="cls-1" d="M44.56,56c-3.66,0-7.17,0-10.68,0a3.31,3.31,0,0,1-3.41-1.81c-.68-1.44-.15-2.63.8-3.78Q43.83,35.28,56.35,20.1c1.31-1.59,2.47-2,3.9-1.53s2.07,1.63,2.07,3.74V49.58h1.17c3.21,0,6.41,0,9.61,0a3.19,3.19,0,0,1,2.57,5.51Q64.15,69,52.64,82.92l-2.17,2.63c-1.25,1.5-2.42,1.94-3.84,1.45s-2.07-1.63-2.07-3.54q0-13.06,0-26.13Zm22.38-.09a1.68,1.68,0,0,0-.36-.11H59.87c-2.58,0-3.74-1.15-3.74-3.7v-22L39.94,49.68a2.06,2.06,0,0,0,.36.1H47c2.57,0,3.73,1.15,3.73,3.7q0,10.32,0,20.66v1.33L66.94,55.9"/><path class="cls-1" d="M93,72.37c-.83.34-1.55.67-2.29.95a3.13,3.13,0,0,1-4.16-1.6,3.08,3.08,0,0,1,1.72-4.1q4.5-1.94,9-3.79a3,3,0,0,1,4.3,1.78c1.29,3,2.54,6,3.78,8.93a3.1,3.1,0,1,1-5.72,2.37c-.27-.59-.52-1.18-.8-1.84-1,2-1.92,3.88-3,5.68-8.64,14.16-21.16,22.69-37.65,24.59A50.25,50.25,0,0,1,3.32,68.19,3.17,3.17,0,0,1,5.4,64.07a3.11,3.11,0,0,1,3.88,2.47,43.79,43.79,0,0,0,15.37,23.4c9.12,7.18,19.55,10.53,31.12,9.43,16.95-1.61,29.17-10.31,36.76-25.53.19-.37.34-.75.51-1.13a1.72,1.72,0,0,0,0-.34"/><path class="cls-1" d="M12.79,32.7l2.07-.86A3.14,3.14,0,0,1,19,33.39a3.07,3.07,0,0,1-1.69,4.11q-4.59,2-9.22,3.88a3,3,0,0,1-4-1.63c-1.31-3-2.73-6-3.75-9-.71-2.17-.36-3.48,1.58-4.3,1.65-.7,3.3.15,4.12,2,.26.61.52,1.23.87,2,.44-.92.78-1.66,1.15-2.38C16.45,12.18,29.52,2.72,47.38.41A50.38,50.38,0,0,1,102.3,37.54c.52,2-.31,3.67-2,4.15s-3.39-.47-4-2.51A44.25,44.25,0,0,0,80.73,15.59C58.58-1.83,25.54,5.89,13.38,31.31c-.18.39-.34.79-.59,1.39"/><path class="cls-1" d="M125.89,87.12a8.5,8.5,0,1,1-8.5-8.5,8.5,8.5,0,0,1,8.5,8.5"/><text class="cls-2" transform="translate(113.77 91.89)">+</text></g></g></svg>