<svg xmlns="http://www.w3.org/2000/svg" viewBox="0 0 104.76 103.34"><defs><style>.cls-1{fill:#0d426d;}.cls-2{font-size:13px;fill:#fff;font-family:MyriadPro-Regular, Myriad Pro;}</style></defs><title>resitencialogo</title><g id="Capa_2" data-name="Capa 2"><g id="Capa_1-2" data-name="Capa 1"><path class="cls-1" d="M44.65,0A172.58,172.58,0,0,0,85.53,17.56c2.27.64,2.57,1.05,2.57,3.39,0,7.77.12,15.55-.07,23.31a62.57,62.57,0,0,1-17.2,42.35A63.92,63.92,0,0,1,51.54,101,40.36,40.36,0,0,1,46,103.07c-2.27.69-4.45,0-6.57-.85A57.36,57.36,0,0,1,23,92.12,64,64,0,0,1,5.24,68.34,56.3,56.3,0,0,1,.29,48C0,38.71.07,29.42,0,20.14c0-1.36.54-2,2-2.4a180.34,180.34,0,0,0,19-6.53A172.54,172.54,0,0,0,41.8,1l1.64-1ZM83.93,34.75h-.14c0-4,0-8.07,0-12.11,0-.75-.16-1.1-.94-1.33a174.5,174.5,0,0,1-38-16.17,1.35,1.35,0,0,0-1.56,0A169.73,169.73,0,0,1,5.2,21.32a1.06,1.06,0,0,0-.91,1.25c0,6.42,0,12.85,0,19.27A63.24,63.24,0,0,0,8,63.59a59.06,59.06,0,0,0,14.33,22A58.75,58.75,0,0,0,40.57,98.05a7.49,7.49,0,0,0,6.42.21c.94-.44,1.93-.79,2.86-1.26A61.4,61.4,0,0,0,76.31,71.79a55.88,55.88,0,0,0,7.1-23.34c.34-4.56.36-9.14.52-13.7"/><path class="cls-1" d="M37,55.45a14.56,14.56,0,0,1,.92-1.21Q48.18,44,58.46,33.69c2.71-2.71,6-3.22,9.08-1.42a7,7,0,0,1,1.92,10.27,13.71,13.71,0,0,1-.93,1.07L42.42,69.73c-2.19,2.19-4.76,3-7.72,1.94a8,8,0,0,1-2.77-1.77q-6.32-6.16-12.5-12.47c-3.63-3.69-2.78-9.31,1.74-11.52a6.37,6.37,0,0,1,7.37.83c2.62,2.3,5,4.86,7.49,7.33a10.7,10.7,0,0,1,1,1.38m.18,12.63a17.39,17.39,0,0,0,2.29-1.58Q52.42,53.61,65.3,40.69A8.06,8.06,0,0,0,66,40a2.68,2.68,0,0,0-1.42-4.27,2.93,2.93,0,0,0-3,1.08Q50.37,47.94,39.2,59.08c-1.64,1.64-2.63,1.65-4.24,0-2.91-2.89-5.8-5.81-8.72-8.69a2.71,2.71,0,1,0-3.85,3.82q6.33,6.38,12.71,12.69a9.83,9.83,0,0,0,2.08,1.15"/><path class="cls-1" d="M8.56,30.51c0-1.21,0-2.42,0-3.63a2.4,2.4,0,0,1,1.93-2.69c3.69-1.31,7.41-2.58,11.08-3.94,2.24-.84,3.55.88,3.29,2.26A2.51,2.51,0,0,1,23,24.4c-3,1.08-6,2.19-9.09,3.23a1.16,1.16,0,0,0-1,1.34c.06,1.85,0,3.7,0,5.55a2.25,2.25,0,0,1-1.3,2.21,1.8,1.8,0,0,1-2.23-.34,4,4,0,0,1-.81-2,37.61,37.61,0,0,1,0-3.83"/><path class="cls-1" d="M68.78,69.81a2.11,2.11,0,0,1,1.69,3.41,55,55,0,0,1-3.26,4.48,59.71,59.71,0,0,1-9.77,9.56c-1.23,1-2.49,1-3.31,0a2.21,2.21,0,0,1,.53-3.28,57.44,57.44,0,0,0,9-8.77c1.07-1.34,2.06-2.74,3.06-4.13a2.39,2.39,0,0,1,2.06-1.23"/><path class="cls-1" d="M50.47,87.23a2.2,2.2,0,0,1,2.19,2.07,2.39,2.39,0,0,1-2.21,2.33,2.14,2.14,0,0,1-2.2-2.14,2.26,2.26,0,0,1,2.22-2.26"/><path class="cls-1" d="M31.1,19.54a2.26,2.26,0,0,1-2.17,2.21,2.2,2.2,0,0,1-2.19-2.17,2.27,2.27,0,0,1,2.12-2.16,2.23,2.23,0,0,1,2.24,2.12"/><path class="cls-1" d="M104.76,86.12a8.5,8.5,0,1,1-8.5-8.5,8.5,8.5,0,0,1,8.5,8.5"/><text class="cls-2" transform="translate(92.64 90.89)">+</text></g></g></svg>