<?xml version="1.0" encoding="UTF-8"?>
<svg id="Capa_1" data-name="Capa 1" xmlns="http://www.w3.org/2000/svg" viewBox="0 0 353.84 485.74">
  <path d="M134.9,485.4c-43.09-3.5-76.82-36.59-103.96-67.34-19.1-21.64-28.44-45.52-29.93-74.44-3.21-62.28,2.52-127.25,0-189.81,3.16-48.45,64.15-39.01,74.58,2.41,6.48,25.76,7.03,55.02,12.95,80.97.24,1.05.35,2.87,1.27,3.46L226.02,104.5c21.45-21.11,56.36-12.91,65.53,15.66,3.28-1.06,5.9-3.24,9.23-4.51,37.99-14.44,69.22,29.8,43.89,60.93l-77.81,77.83,15.8,10.28c11.26,12.27,14.3,27.42,8.1,43-.73,1.84-4.91,7.76-3.97,8.83,28.78,7.36,36.49,45.05,15.22,65.02-45.06,33.79-87.05,98.58-147.18,103.85-5.43.48-14.48.44-19.94,0ZM247.24,340.88c-11.18-11.18,15.57-28.53,21.99-36.66,12.31-15.59-3.12-35.61-20.69-29.22-10.3,3.75-25.08,27.41-33.52,28.24-9.85.97-14.94-12.26-7.05-18.51l121.53-121.41c13.39-18.3-8.12-39.3-26.08-26.06-42.42,41.35-83.07,84.86-126.51,124.96-9.44,2.45-17.07-7.13-11.64-15.42,35.08-36.34,73.04-70.3,106.24-108.23,6.36-16.27-10.64-32.49-26.21-23.35-53.62,51.34-104.33,105.98-158.59,156.47-4.82,2.55-10.01.72-12.97-3.62-8.19-33.25-9.71-69.17-16.99-102.55-1.65-7.57-2.89-13.17-9.18-18.33-7.16-5.88-20.13-9.54-25.21.43l-.47,202.63c2.4,36.57,33.75,67.07,59.84,90.09,33.57,29.62,81.11,33.83,117.65,6.55,30.76-22.96,58.22-56.26,88.83-80.09,13.53-13.17,1.64-35.59-16.66-31.82-7.96,1.64-15.61,14.57-24.3,5.89Z"/>
  <path d="M96.92,40.48h180.85c2.82,0,7.19,6.66,7.06,9.88-.14,3.53-4.51,10.04-8.01,10.04H96.92c6.17,8.23,16.03,14.89,22.32,22.76,9.21,11.54-2.59,23.58-15.22,13.31-8.93-7.26-32.07-30.02-38.92-38.89-4.26-5.52-4.32-9.18-.13-14.88,14.5-10.68,26.6-29.01,40.47-39.72,11.35-8.75,22.83,3.42,13.8,14.73-6.28,7.87-16.15,14.53-22.32,22.76Z"/>
</svg>