<svg xmlns="http://www.w3.org/2000/svg" viewBox="0 0 101.05 117.86"><defs><style>.cls-1{fill:#0d2d43;}</style></defs><title>vial</title><g id="Capa_2" data-name="Capa 2"><g id="Capa_1-2" data-name="Capa 1"><path class="cls-1" d="M3.11,117.86A4.78,4.78,0,0,1,0,112.45a22,22,0,0,0,0-2.3c0-3.1,1.59-4.69,4.67-4.7,2.42,0,4.83,0,7.25,0h1.17c1.35-5.16,2.67-10.23,4-15.3L39.54,3.87C40.28,1,41.64,0,44.54,0h12c2.91,0,4.27,1,5,3.87Q71.68,43,81.84,82.14q2.89,11.13,5.78,22.24c.09.33.2.65.33,1.07h8c3.54,0,5,1.47,5,5a18.11,18.11,0,0,0,0,2A4.78,4.78,0,0,1,98,117.86ZM26,71.73H55.7a8.5,8.5,0,0,1,1.6.1,1.91,1.91,0,0,1,.24,3.66,4.5,4.5,0,0,1-1.47.19c-2.72,0-5.44,0-8.17,0-7.28,0-14.57,0-21.86,0-.4,0-1.09.25-1.17.52-.76,2.63-1.41,5.3-2.12,8H78.32c-.68-2.61-1.37-5.07-2-7.57-.19-.77-.48-1-1.3-1-3.1,0-6.21,0-9.32,0-1.5,0-2.35-.73-2.38-1.93s.81-2,2.39-2c2.64,0,5.29,0,7.94,0,.4,0,.8,0,1.34-.07L68.41,46.19H32.64C30.43,54.67,28.24,63.1,26,71.73M4.05,113.83H97V109.4H81.4c-1.23,0-2.46,0-3.68-.06A1.71,1.71,0,0,1,76,107.61a1.77,1.77,0,0,1,1.35-2,5.11,5.11,0,0,1,1.36-.15c1.64,0,3.28,0,5,0a3.73,3.73,0,0,0-.06-.69c-1.35-5.23-2.74-10.45-4.06-15.69-.19-.75-.63-.72-1.18-.72q-27.84,0-55.7,0c-.82,0-1.11.26-1.3,1-.93,3.72-1.91,7.42-2.88,11.12-.41,1.62-.82,3.23-1.27,5h38.5a7.87,7.87,0,0,1,1.37.07,2,2,0,0,1,1.69,2A1.92,1.92,0,0,1,57,109.37a12.71,12.71,0,0,1-1.38,0H4.05ZM37,29.51h14.7a7.56,7.56,0,0,1,1.26.1,1.85,1.85,0,0,1,1.64,1.91,1.88,1.88,0,0,1-1.78,1.9,8.79,8.79,0,0,1-1.26.06c-4.87,0-9.74,0-14.61,0-.37,0-1,.24-1.08.49-.76,2.67-1.43,5.37-2.14,8.11H67.25a1.09,1.09,0,0,0,0-.29q-.67-2.62-1.34-5.23c-.8-3.09-.8-3.09-4-3.1-.19,0-.38,0-.57,0-1.4-.07-2.26-.79-2.3-1.92s.87-2,2.3-2c.83,0,1.67,0,2.58,0a8.76,8.76,0,0,0-.13-.87q-3.11-12-6.2-23.9c-.19-.76-.62-.81-1.25-.81-3.91,0-7.82,0-11.73,0-.88,0-1.15.31-1.35,1.11-1.17,4.64-2.4,9.27-3.61,13.9L37,29.51"/><path class="cls-1" d="M67.35,109.36c-.76,0-1.53.06-2.29,0a1.75,1.75,0,0,1-1.68-1.73c-.08-1,.36-1.88,1.34-2a30.84,30.84,0,0,1,5.35,0,1.64,1.64,0,0,1,1.37,2,1.75,1.75,0,0,1-1.68,1.73c-.8.08-1.6,0-2.41,0"/></g></g></svg>