<svg xmlns="http://www.w3.org/2000/svg" viewBox="0 0 40.33 41.24"><defs><style>.cls-1{fill:#fff;}</style></defs><title>xlogo</title><g id="Capa_2" data-name="Capa 2"><g id="Capa_1-2" data-name="Capa 1"><path class="cls-1" d="M39,0,32.41,7.7l-8.14,9.46-.25.31L40.33,41.21l-.35,0c-3.77,0-7.54,0-11.31,0a.6.6,0,0,1-.55-.3q-5.24-7.65-10.5-15.29l-.29-.41c-1,1.19-2,2.34-3,3.5Q9,34.86,3.77,41a.84.84,0,0,1-.53.26c-1,0-2.09,0-3.24,0C5.28,35.1,10.5,29,15.74,22.94a4,4,0,0,0-.22-.34Q7.93,11.53.33.48C.22.32.13.16,0,0H12l.09.18L22.27,14.93l.14.25L35.47,0ZM35.45,38.65l-.3-.43-6.52-9.33q-9-12.9-18-25.79a.89.89,0,0,0-.85-.44c-1.49,0-3,0-4.46,0l-.43,0c.1.14.16.24.22.34Q17.45,20.71,29.8,38.39a.6.6,0,0,0,.56.29H35l.42,0"/></g></g></svg>